/* XPM */
static char * C:\MinGW\msys\1_0\home\James\bri\pixmaps\bitcoin32_xpm[] = {
"32 32 323 2",
"  	c None",
". 	c #6895C9",
"+ 	c #6493C8",
"@ 	c #6392C8",
"# 	c #6998CB",
"$ 	c #709BC9",
"% 	c #78A1C5",
"& 	c #82A5C4",
"* 	c #88AAC4",
"= 	c #80A4C4",
"- 	c #739CC5",
"; 	c #6492C4",
"> 	c #6E9ACA",
", 	c #7FA4C5",
"' 	c #A1BBD0",
") 	c #B2C7D6",
"! 	c #B7CAD7",
"~ 	c #B0C5D2",
"{ 	c #99B4C5",
"] 	c #92B0C4",
"^ 	c #8EADC4",
"/ 	c #89AAC4",
"( 	c #739BC4",
"_ 	c #5C8BC0",
": 	c #6E9AC9",
"< 	c #87ABC7",
"[ 	c #B8CBDA",
"} 	c #BCCED9",
"| 	c #C1D1D9",
"1 	c #C4D3D8",
"2 	c #C5D3D9",
"3 	c #C7D5DA",
"4 	c #A5BCC5",
"5 	c #9AB4C2",
"6 	c #92AFC3",
"7 	c #88AAC5",
"8 	c #7BA2C4",
"9 	c #5B89BE",
"0 	c #6B99C9",
"a 	c #7EA4C4",
"b 	c #B6CADA",
"c 	c #BECFD9",
"d 	c #CAD6D8",
"e 	c #CDD8D8",
"f 	c #CFD9D7",
"g 	c #CFD8D7",
"h 	c #C9D5D6",
"i 	c #A4BABE",
"j 	c #9EB7C2",
"k 	c #94B0C3",
"l 	c #87A9C5",
"m 	c #759EC4",
"n 	c #5484BC",
"o 	c #779FC6",
"p 	c #9CB7CE",
"q 	c #BDCFD9",
"r 	c #C5D3D8",
"s 	c #CCD8D8",
"t 	c #D1DBD7",
"u 	c #D5DDD6",
"v 	c #D7DED6",
"w 	c #D6DDD6",
"x 	c #D6DED8",
"y 	c #B3C3BF",
"z 	c #A8BDC0",
"A 	c #91AFC3",
"B 	c #83A7C5",
"C 	c #618EBE",
"D 	c #6996C8",
"E 	c #81A6C4",
"F 	c #ADC4D3",
"G 	c #C3D2D9",
"H 	c #CCD7D8",
"I 	c #D2DCD7",
"J 	c #D9DFD6",
"K 	c #DCE0D4",
"L 	c #DEE2D5",
"M 	c #DDE2D4",
"N 	c #DDE1D6",
"O 	c #BEC9BE",
"P 	c #B3C3BE",
"Q 	c #A7BCC0",
"R 	c #99B4C2",
"S 	c #8BACC4",
"T 	c #759DC3",
"U 	c #6D99C6",
"V 	c #87A9C4",
"W 	c #B4C7D3",
"X 	c #C8D5D8",
"Y 	c #DFE2D4",
"Z 	c #E3E4D3",
"` 	c #E5E5D2",
" .	c #E5E5D3",
"..	c #E2E4D4",
"+.	c #C4CBB5",
"@.	c #BBC8BC",
"#.	c #AFC1BF",
"$.	c #A1B9C1",
"%.	c #92B0C3",
"&.	c #87ABC6",
"*.	c #4D7DB7",
"=.	c #719BC5",
"-.	c #AEC2CC",
";.	c #CDD8D7",
">.	c #DEE2D4",
",.	c #E4E5D3",
"'.	c #E9E8D1",
").	c #EBE9D0",
"!.	c #EBE9D1",
"~.	c #DFDEC1",
"{.	c #CFD2B5",
"].	c #C4CCB9",
"^.	c #B6C5BD",
"/.	c #98B3C2",
"(.	c #8AACC5",
"_.	c #5381B8",
":.	c #709AC4",
"<.	c #A1B8C0",
"[.	c #CED8D6",
"}.	c #DADFD5",
"|.	c #E3E5D3",
"1.	c #E9E8D0",
"2.	c #EEEACC",
"3.	c #F7F4E4",
"4.	c #F2EED2",
"5.	c #E9E6C7",
"6.	c #D5D4AE",
"7.	c #CACFB7",
"8.	c #BCC8BB",
"9.	c #ADC0BF",
"0.	c #9DB6C2",
"a.	c #90B0C5",
"b.	c #4E7DB6",
"c.	c #6793C3",
"d.	c #97B3C3",
"e.	c #A7BCC1",
"f.	c #D4D9CA",
"g.	c #E5E5D1",
"h.	c #F2F0E5",
"i.	c #FDFBF1",
"j.	c #F8F0CD",
"k.	c #F9F3D8",
"l.	c #F7F3DF",
"m.	c #F3F2EB",
"n.	c #D1D3B7",
"o.	c #C1CABA",
"p.	c #B1C2BE",
"q.	c #A0B8C2",
"r.	c #8FADC3",
"s.	c #4375B2",
"t.	c #5989C1",
"u.	c #8FAEC2",
"v.	c #A9BDC0",
"w.	c #B9C6BC",
"x.	c #C9CFB7",
"y.	c #D7D5AF",
"z.	c #E6E3CA",
"A.	c #E4DAAE",
"B.	c #F8E49A",
"C.	c #F5E49B",
"D.	c #EDE0A0",
"E.	c #E2E0D9",
"F.	c #D0D1AC",
"G.	c #C3CBB9",
"H.	c #B3C3BD",
"I.	c #A2B9C1",
"J.	c #7096BB",
"K.	c #6490C0",
"L.	c #B0C1C0",
"M.	c #BAC7BC",
"N.	c #C9CFB8",
"O.	c #D9D6B1",
"P.	c #E9DEA8",
"Q.	c #D6D2C5",
"R.	c #FDE692",
"S.	c #F9E597",
"T.	c #E8DCA1",
"U.	c #D7D6CB",
"V.	c #D3D3B3",
"W.	c #B4C3BE",
"X.	c #A5BCC1",
"Y.	c #4777B3",
"Z.	c #7C9FBE",
"`.	c #BBC7BC",
" +	c #C9CEB8",
".+	c #D7D6B1",
"++	c #E5DDA8",
"@+	c #C6C4BB",
"#+	c #FCE796",
"$+	c #F4E39C",
"%+	c #CFC9B0",
"&+	c #DCD8B8",
"*+	c #D2D3B4",
"=+	c #BBC9BF",
"-+	c #5A85B5",
";+	c #4F80BC",
">+	c #98B1BC",
",+	c #C5CCB8",
"'+	c #D4D4B3",
")+	c #DFDAAD",
"!+	c #D6D0AF",
"~+	c #C8BFA2",
"{+	c #EADBA5",
"]+	c #B5B5AF",
"^+	c #E0DCAD",
"/+	c #CED1B5",
"(+	c #C5CEBB",
"_+	c #7194B6",
":+	c #5080BA",
"<+	c #B8C4BA",
"[+	c #CDD1B5",
"}+	c #D9D5B0",
"|+	c #DACDAB",
"1+	c #E4D8AA",
"2+	c #E1D7AA",
"3+	c #D8CEAD",
"4+	c #D4D1B1",
"5+	c #CAD0B7",
"6+	c #8AA5B7",
"7+	c #608AB9",
"8+	c #CED2B8",
"9+	c #D0CDB2",
"0+	c #DCD8AF",
"a+	c #DBD8AF",
"b+	c #D7D8B2",
"c+	c #CEC9B1",
"d+	c #BBC6B9",
"e+	c #396CAF",
"f+	c #3F73B6",
"g+	c #C4CDBB",
"h+	c #CACAB4",
"i+	c #CED0B4",
"j+	c #D1D3B4",
"k+	c #CCD2B7",
"l+	c #C9C6B4",
"m+	c #9CB2B9",
"n+	c #4174B4",
"o+	c #B2C2BD",
"p+	c #C2C5B7",
"q+	c #C5CBB8",
"r+	c #C7CDB8",
"s+	c #C6CDB8",
"t+	c #C1CBBB",
"u+	c #C3C4B5",
"v+	c #93ADBA",
"w+	c #4274B3",
"x+	c #A2B7BE",
"y+	c #BAC2B9",
"z+	c #BAC5BB",
"A+	c #B4C5BF",
"B+	c #BEC0B7",
"C+	c #8AA7BB",
"D+	c #8AA8BE",
"E+	c #B2BDBB",
"F+	c #AFBFBF",
"G+	c #AEC1C3",
"H+	c #ADC1C3",
"I+	c #A7BEC3",
"J+	c #B6BDB8",
"K+	c #80A1BB",
"L+	c #6A91B8",
"M+	c #AAB5B3",
"N+	c #AAB6AD",
"O+	c #ACB7A9",
"P+	c #A4B5AE",
"Q+	c #B0B6B0",
"R+	c #6F93B6",
"S+	c #5B7B98",
"T+	c #ACB8B5",
"U+	c #A2B5B7",
"V+	c #A1B7B9",
"W+	c #A0B7BA",
"X+	c #9AB5BE",
"Y+	c #B3BCBA",
"Z+	c #4A7AB5",
"`+	c #D5A82C",
" @	c #4F7AA9",
".@	c #628CB7",
"+@	c #7C9EB9",
"@@	c #84A4BA",
"#@	c #7B9EBB",
"$@	c #4675B1",
"%@	c #B1A161",
"&@	c #DA9E0A",
"*@	c #FBC92F",
"=@	c #E0CE72",
"-@	c #AEB588",
";@	c #9AAA92",
">@	c #A4B095",
",@	c #ECDD99",
"'@	c #EEC861",
")@	c #E2AB18",
"!@	c #FFDF58",
"~@	c #EFC23D",
"{@	c #F0C64B",
"]@	c #F1C954",
"^@	c #F2CB5E",
"/@	c #F1CE69",
"(@	c #E3B43E",
"_@	c #E4AD1B",
":@	c #EEBF33",
"<@	c #EFC13C",
"[@	c #F8D35B",
"}@	c #FFE784",
"|@	c #FFED96",
"1@	c #FFEFA4",
"2@	c #FBE497",
"3@	c #DCA00D",
"4@	c #FAD147",
"5@	c #FFE76E",
"6@	c #FAD55F",
"7@	c #F0C751",
"8@	c #F1CB5D",
"9@	c #EECA5E",
"0@	c #D89B0A",
"a@	c #C08D15",
"b@	c #ECB62C",
"c@	c #F0BA35",
"d@	c #D0A12E",
"e@	c #AB7100",
"f@	c #4E4D55",
"g@	c #626066",
"h@	c #36353C",
"                            . + @                               ",
"                      # $ % & * * = - ;                         ",
"                    > , ' ) ! ~ { ] ^ / ( _                     ",
"                  : < [ } | 1 2 3 4 5 6 7 8 9                   ",
"                0 a b c 2 d e f g h i j k l m n                 ",
"                o p q r s t u v w x y z j A B C                 ",
"              D E F G H I J K L M N O P Q R S T                 ",
"              U V W X t J Y Z `  ...+.@.#.$.%.&.*.              ",
"              =.^ -.;.w >.,.'.).!.~.{.].^.z /.(._.              ",
"              :.6 <.[.}.|.1.2.3.4.5.6.7.8.9.0.a.b.              ",
"              c.d.e.^.f.g.h.i.j.k.l.m.n.o.p.q.r.s.              ",
"              t.u.v.w.x.y.z.A.B.C.D.E.F.G.H.I.J.                ",
"                K.L.M.N.O.P.Q.R.S.T.U.V.].W.X.Y.                ",
"                  Z.`. +.+++@+#+$+%+&+*+G.=+-+                  ",
"                  ;+>+,+'+)+!+~+{+]+^+/+(+_+                    ",
"                    :+<+[+}+|+1+2+3+4+5+6+                      ",
"                      7+8+9+}+0+a+b+c+d+e+                      ",
"                      f+g+h+i+j+j+k+l+m+                        ",
"                      n+o+p+q+r+s+t+u+v+                        ",
"                      w+x+y+z+M.M.A+B+C+                        ",
"                        D+E+F+G+H+I+J+K+                        ",
"                        L+M+N+O+O+P+Q+R+                        ",
"                        S+T+U+V+W+X+Y+Z+                        ",
"                        `+ @.@+@@@#@$@%@                        ",
"                        &@*@=@-@;@>@,@'@                        ",
"                        )@!@~@{@]@^@/@(@                        ",
"                        _@:@<@[@}@|@1@2@                        ",
"                        3@4@5@6@7@8@9@0@                        ",
"                            a@b@c@d@e@                          ",
"                              f@g@h@                            ",
"                                                                ",
"                                                                "};
