/* XPM */
static char * C:\MinGW\msys\1_0\home\James\bri\pixmaps\bitcoin16_xpm[] = {
"16 16 82 1",
" 	c None",
".	c #6D99C6",
"+	c #769EC4",
"@	c #779FC5",
"#	c #6794C5",
"$	c #87AACB",
"%	c #B8CBD7",
"&	c #BFD0D8",
"*	c #A5BDC9",
"=	c #93B0C3",
"-	c #739CC3",
";	c #7BA2C7",
">	c #C1D1DB",
",	c #CBD7D8",
"'	c #D2DBD7",
")	c #D4DCD9",
"!	c #A5BBBE",
"~	c #6B96C1",
"{	c #9CB8CB",
"]	c #D9DFD6",
"^	c #E1E3D3",
"/	c #E2E5D6",
"(	c #BBC7B9",
"_	c #A4BBC1",
":	c #88ABC5",
"<	c #6D98C5",
"[	c #9BB5C3",
"}	c #D6DDD8",
"|	c #E4E5D2",
"1	c #EFECD4",
"2	c #EAE7CA",
"3	c #CBCFB1",
"4	c #B2C3BE",
"5	c #96B3C4",
"6	c #A1B9C2",
"7	c #C2CCBD",
"8	c #E7E5CF",
"9	c #F6ECC5",
"0	c #F6EDC0",
"a	c #E1E1D1",
"b	c #BAC7BC",
"c	c #91ADC1",
"d	c #7A9EBF",
"e	c #C5CDBA",
"f	c #E3DCA8",
"g	c #E0D5B1",
"h	c #E9DBA0",
"i	c #D7D5BC",
"j	c #C4CEBD",
"k	c #638CB7",
"l	c #97AFBA",
"m	c #D7D6B1",
"n	c #D5CAA9",
"o	c #D2CAAB",
"p	c #D8D7B2",
"q	c #809FB6",
"r	c #D3D2B6",
"s	c #D6D5B2",
"t	c #D5D7B3",
"u	c #C0C4B6",
"v	c #B8C3BB",
"w	c #C0C9BA",
"x	c #BDC9BC",
"y	c #AAB7B8",
"z	c #93AABA",
"A	c #ADBBB4",
"B	c #A8BAB5",
"C	c #97AAB6",
"D	c #869289",
"E	c #82A3BD",
"F	c #8DACBF",
"G	c #738CA1",
"H	c #F6C126",
"I	c #E0C55D",
"J	c #C6B871",
"K	c #F4CD62",
"L	c #EBB727",
"M	c #FBD95F",
"N	c #FADD78",
"O	c #F3D26E",
"P	c #987629",
"Q	c #A08442",
"      .+@#      ",
"     $%&*=-     ",
"    ;>,')!=~    ",
"    {,]^/(_:    ",
"   <[}|12345    ",
"    67890abc    ",
"    defghijk    ",
"     lmnopq     ",
"      rstu      ",
"      vwxy      ",
"      zABC      ",
"      DEFG      ",
"      HIJK      ",
"      LMNO      ",
"       PQ       ",
"                "};
